<svg width="17" height="15" viewBox="0 0 17 15" fill="none" xmlns="http://www.w3.org/2000/svg">
<path d="M6.66504 0C5.77911 0 5.11999 0.586333 4.764 1.17187C4.51723 1.61026 4.27164 2.05777 4.02669 2.5H2.96875C1.36458 2.5 0 3.75442 0 5.34342V12.1549C0 13.7439 1.36458 15 2.96875 15H13.6979C15.3021 15 16.6667 13.7439 16.6667 12.1549V5.34342C16.6667 3.75442 15.3021 2.5 13.6979 2.5H12.57L11.901 1.22396C11.5585 0.570075 10.8651 0 9.98861 0H6.66504ZM6.66504 1.66667H9.98861C10.1643 1.66667 10.301 1.76067 10.4248 1.99707L11.3265 3.71908C11.4702 3.99426 11.755 4.16674 12.0654 4.16667H13.6979C14.4593 4.16667 15 4.70471 15 5.34342V12.1549C15 12.7937 14.4593 13.3333 13.6979 13.3333H2.96875C2.20734 13.3333 1.66667 12.7937 1.66667 12.1549V5.34342C1.66667 4.70471 2.20734 4.16667 2.96875 4.16667H4.51823C4.82133 4.16669 5.10056 4.00215 5.2474 3.73698L6.18815 2.03776C6.35677 1.76042 6.49513 1.66667 6.66504 1.66667Z" fill="#FBFDFD"/>
<path d="M8.31185 4.99805C6.48077 4.99805 4.97852 6.50031 4.97852 8.33138C4.97851 10.1625 6.48077 11.6647 8.31185 11.6647C10.1429 11.6647 11.6452 10.1625 11.6452 8.33138C11.6452 6.50031 10.1429 4.99805 8.31185 4.99805ZM8.31185 6.66471C9.24219 6.66471 9.97852 7.40104 9.97852 8.33138C9.97852 9.26172 9.24219 9.99805 8.31185 9.99805C7.38151 9.99805 6.64518 9.26172 6.64518 8.33138C6.64518 7.40104 7.38151 6.66471 8.31185 6.66471Z" fill="#FBFDFD"/>
</svg>