<svg width="25" height="28" viewBox="0 0 25 28" fill="none" xmlns="http://www.w3.org/2000/svg">
<path d="M1.73092 27.2797H15.6266C15.8971 27.2797 16.1565 27.1722 16.3478 26.9809C16.5391 26.7896 16.6465 26.5302 16.6465 26.2597V21.4725C16.6465 21.202 16.5391 20.9426 16.3478 20.7513C16.1565 20.56 15.8971 20.4526 15.6266 20.4526C15.356 20.4526 15.0966 20.56 14.9053 20.7513C14.714 20.9426 14.6066 21.202 14.6066 21.4725V25.2397H2.75091V2.28998H14.6066V6.05713C14.6066 6.32765 14.714 6.58709 14.9053 6.77837C15.0966 6.96966 15.356 7.07712 15.6266 7.07712C15.8971 7.07712 16.1565 6.96966 16.3478 6.77837C16.5391 6.58709 16.6465 6.32765 16.6465 6.05713V1.26999C16.6465 0.99947 16.5391 0.740032 16.3478 0.548747C16.1565 0.357463 15.8971 0.25 15.6266 0.25H1.73092C1.46041 0.25 1.20097 0.357463 1.00968 0.548747C0.8184 0.740032 0.710938 0.99947 0.710938 1.26999V26.2597C0.710938 26.5302 0.8184 26.7896 1.00968 26.9809C1.20097 27.1722 1.46041 27.2797 1.73092 27.2797Z" fill="#FBFDFD"/>
<path d="M24.4317 13.0643L19.7465 8.08673C19.6555 7.98645 19.5453 7.90532 19.4226 7.84806C19.2998 7.7908 19.1669 7.75857 19.0316 7.75323C18.8962 7.7479 18.7612 7.76957 18.6343 7.81699C18.5074 7.86441 18.3913 7.93663 18.2926 8.02942C18.1939 8.12222 18.1147 8.23374 18.0596 8.35747C18.0045 8.4812 17.9746 8.61467 17.9717 8.75008C17.9687 8.8855 17.9927 9.02015 18.0424 9.14617C18.092 9.2722 18.1662 9.38708 18.2607 9.48411L21.3207 12.7447H8.40085C8.13033 12.7447 7.87089 12.8521 7.67961 13.0434C7.48832 13.2347 7.38086 13.4941 7.38086 13.7647C7.38086 14.0352 7.48832 14.2946 7.67961 14.4859C7.87089 14.6772 8.13033 14.7846 8.40085 14.7846H21.3207L18.2607 18.0452C18.1662 18.1422 18.092 18.2571 18.0424 18.3831C17.9927 18.5092 17.9687 18.6438 17.9717 18.7792C17.9746 18.9146 18.0045 19.0481 18.0596 19.1718C18.1147 19.2956 18.1939 19.4071 18.2926 19.4999C18.3913 19.5927 18.5074 19.6649 18.6343 19.7123C18.7612 19.7597 18.8962 19.7814 19.0316 19.7761C19.1669 19.7707 19.2998 19.7385 19.4226 19.6813C19.5453 19.624 19.6555 19.5429 19.7465 19.4426L24.4317 14.465C24.6105 14.2757 24.7101 14.0251 24.7101 13.7647C24.7101 13.5042 24.6105 13.2536 24.4317 13.0643V13.0643Z" fill="#FBFDFD"/>
</svg>