<svg width="165" height="72" viewBox="0 0 165 72" fill="none" xmlns="http://www.w3.org/2000/svg">
<path d="M55.8548 26.4422V28H47.3479V26.4422L49.6388 25.9993C49.8934 25.9585 50.0868 25.8618 50.2192 25.7091C50.3617 25.5462 50.4483 25.3375 50.4788 25.0829L52.6323 7.21382C52.673 6.93891 52.6272 6.71491 52.4948 6.54182C52.3727 6.35855 52.1741 6.24655 51.8992 6.20582L49.1348 5.73236V4.144H57.4279L63.1857 21.9978L68.2563 4.144H76.5799V5.73236L73.785 6.20582C73.4999 6.25673 73.2963 6.37382 73.1741 6.55709C73.0621 6.73018 73.0265 6.95927 73.0672 7.24436L75.9079 25.0982C75.9385 25.3425 76.025 25.5462 76.1676 25.7091C76.3203 25.8618 76.5137 25.9585 76.7479 25.9993L79.0236 26.4422V28H69.7377V26.4422L72.5937 25.9382L69.6308 7.168L63.9647 26.992H61.521L54.8774 7.15273L52.7087 25.9382L55.8548 26.4422ZM88.7293 11.9025C87.6297 11.9025 86.7184 12.2844 85.9955 13.048C85.2726 13.8015 84.8042 15.008 84.5904 16.6676H92.2726C92.2827 16.5556 92.2929 16.4436 92.3031 16.3316C92.3133 16.2095 92.3184 16.0822 92.3184 15.9498C92.3184 14.7585 92.0078 13.7862 91.3867 13.0327C90.7657 12.2793 89.8798 11.9025 88.7293 11.9025ZM95.5257 24.2124C95.1184 25.4444 94.3242 26.4473 93.1431 27.2211C91.962 27.9847 90.4958 28.3665 88.7446 28.3665C87.4413 28.3665 86.3009 28.1476 85.3235 27.7098C84.3562 27.2618 83.5518 26.6458 82.9104 25.8618C82.2791 25.0778 81.8057 24.1411 81.49 23.0516C81.1744 21.9622 81.0166 20.776 81.0166 19.4931C81.0166 18.0371 81.21 16.7287 81.5969 15.568C81.9838 14.4073 82.5337 13.4298 83.2464 12.6356C83.9591 11.8313 84.8195 11.2204 85.8275 10.8029C86.8355 10.3753 87.9555 10.1615 89.1875 10.1615C90.1344 10.1615 90.9998 10.2938 91.7838 10.5585C92.5678 10.8131 93.2398 11.1898 93.7998 11.6887C94.3598 12.1876 94.7926 12.8138 95.098 13.5673C95.4137 14.3207 95.5715 15.1913 95.5715 16.1789C95.5715 16.464 95.5562 16.8102 95.5257 17.2175C95.4951 17.6145 95.4544 17.9709 95.4035 18.2865H84.4682C84.4682 18.3578 84.4682 18.4342 84.4682 18.5156C84.4682 18.5971 84.4682 18.6785 84.4682 18.76C84.4682 20.1345 84.6006 21.2953 84.8653 22.2422C85.13 23.1789 85.4915 23.9324 85.9497 24.5025C86.4078 25.0625 86.9526 25.4647 87.5838 25.7091C88.2151 25.9535 88.8973 26.0756 89.6304 26.0756C90.6282 26.0756 91.5497 25.8516 92.3947 25.4036C93.25 24.9556 93.9271 24.3498 94.426 23.5862L95.5257 24.2124ZM114.601 28.2596C113.796 28.2596 113.17 28.0509 112.722 27.6335C112.274 27.216 111.964 26.6764 111.79 26.0145C111.118 26.7069 110.345 27.272 109.469 27.7098C108.593 28.1375 107.555 28.3513 106.353 28.3513C104.449 28.3513 103.065 27.8269 102.199 26.7782C101.344 25.7193 100.916 24.1207 100.916 21.9825V13.7811C100.916 13.5265 100.85 13.3178 100.718 13.1549C100.596 12.9818 100.397 12.8749 100.122 12.8342L98.213 12.4982V11.0015C99.0581 10.7571 99.9744 10.5789 100.962 10.4669C101.95 10.3447 102.861 10.2735 103.696 10.2531L104.185 10.7418V21.4175C104.185 23.0465 104.419 24.2429 104.887 25.0065C105.356 25.7702 106.231 26.152 107.514 26.152C108.268 26.152 108.99 26.0298 109.683 25.7855C110.385 25.5411 111.042 25.1644 111.653 24.6553V13.7811C111.653 13.5164 111.582 13.3025 111.439 13.1396C111.307 12.9665 111.108 12.8596 110.844 12.8189L108.568 12.4524V10.9556C109.433 10.7316 110.411 10.5585 111.5 10.4364C112.59 10.3142 113.567 10.2531 114.433 10.2531L114.921 10.7418V25.1135C114.921 25.4698 115.003 25.7193 115.166 25.8618C115.329 25.9942 115.542 26.0756 115.807 26.1062L117.548 26.2589V27.7098C117.212 27.8218 116.759 27.9389 116.189 28.0611C115.619 28.1935 115.089 28.2596 114.601 28.2596ZM11.8967 64.1833C11.4691 64.1833 11.0669 64.1731 10.6901 64.1527C10.3236 64.1324 9.94687 64.112 9.55996 64.0916C9.18323 64.0713 8.77596 64.0509 8.33814 64.0305C7.90032 64.0102 7.39632 64 6.82614 64H1.96941V62.4422L4.50469 61.984C4.70832 61.9433 4.87632 61.8465 5.00869 61.6938C5.14105 61.5411 5.20723 61.3578 5.20723 61.144V43.0611C5.20723 42.8575 5.14614 42.6793 5.02396 42.5265C4.90178 42.3738 4.73887 42.2771 4.53523 42.2364L1.96941 41.7324V40.144H6.90251C7.83923 40.144 8.70978 40.1084 9.51414 40.0371C10.3185 39.9556 11.1687 39.9149 12.0647 39.9149C14.9258 39.9149 16.952 40.3985 18.1432 41.3658C19.3447 42.3229 19.9454 43.6975 19.9454 45.4895C19.9454 46.9455 19.5738 48.1927 18.8305 49.2313C18.0974 50.2698 17.0385 50.9622 15.6538 51.3084C17.4661 51.3491 18.9069 51.8785 19.976 52.8967C21.0552 53.9047 21.5949 55.2691 21.5949 56.9898C21.5949 57.9978 21.4371 58.9447 21.1214 59.8305C20.8058 60.7062 20.2712 61.4647 19.5178 62.1062C18.7745 62.7476 17.7767 63.2567 16.5243 63.6335C15.2821 64 13.7396 64.1833 11.8967 64.1833ZM8.58251 41.7171V50.7127C9.24432 50.7331 9.90105 50.7433 10.5527 50.7433C11.2043 50.7433 11.7032 50.7433 12.0494 50.7433C13.5054 50.7433 14.6203 50.3462 15.3941 49.552C16.1781 48.7578 16.5701 47.5462 16.5701 45.9171C16.5701 44.4305 16.1883 43.3258 15.4247 42.6029C14.6712 41.88 13.3731 41.5185 11.5301 41.5185C10.9192 41.5185 10.344 41.5491 9.80432 41.6102C9.26469 41.6713 8.85741 41.7069 8.58251 41.7171ZM11.8051 62.5185C13.984 62.5185 15.5418 62.0858 16.4785 61.2204C17.4254 60.3549 17.8989 59.0669 17.8989 57.3564C17.8989 55.6458 17.4661 54.4189 16.6007 53.6756C15.7454 52.9324 14.4065 52.5607 12.584 52.5607C12.1258 52.5607 11.52 52.5658 10.7665 52.576C10.0131 52.5862 9.28505 52.5964 8.58251 52.6065V62.2742C8.98978 62.3353 9.50396 62.3913 10.1251 62.4422C10.7461 62.4931 11.3061 62.5185 11.8051 62.5185ZM102.076 62.4422V64H93.0651V62.4422L95.5088 61.9993C95.7735 61.9484 95.972 61.8415 96.1044 61.6785C96.2368 61.5156 96.3029 61.3018 96.3029 61.0371V43.168C96.3029 42.9135 96.2317 42.7047 96.0891 42.5418C95.9568 42.3687 95.7633 42.2567 95.5088 42.2058L93.0651 41.7324V40.144H99.7088L111.912 58.7615V43.168C111.912 42.9135 111.84 42.7047 111.698 42.5418C111.565 42.3687 111.372 42.2567 111.117 42.2058L108.521 41.7324V40.144H117.089V41.7324L114.92 42.2058C114.666 42.2669 114.467 42.3789 114.325 42.5418C114.192 42.6945 114.126 42.9033 114.126 43.168V64H111.285L98.5175 44.512V61.0371C98.5175 61.312 98.5837 61.5309 98.716 61.6938C98.8484 61.8567 99.0469 61.9585 99.3117 61.9993L102.076 62.4422ZM131.064 64.4276C129.221 64.4276 127.613 64.1578 126.238 63.6182C124.874 63.0684 123.743 62.2844 122.847 61.2662C121.951 60.248 121.279 58.9956 120.831 57.5091C120.394 56.0225 120.175 54.3527 120.175 52.4996C120.175 50.392 120.445 48.5389 120.984 46.9404C121.524 45.3418 122.287 44.0131 123.275 42.9542C124.273 41.8953 125.479 41.1011 126.895 40.5716C128.32 40.032 129.903 39.7622 131.645 39.7622C132.632 39.7622 133.732 39.8538 134.943 40.0371C136.165 40.2204 137.295 40.5105 138.334 40.9076C138.375 41.7935 138.365 42.7455 138.303 43.7636C138.242 44.7716 138.146 45.7695 138.013 46.7571H136.013L135.279 43.336C135.239 43.1018 135.157 42.8982 135.035 42.7251C134.913 42.552 134.74 42.3993 134.516 42.2669C134.19 42.0735 133.691 41.8953 133.019 41.7324C132.347 41.5695 131.639 41.488 130.896 41.488C128.789 41.488 127.114 42.3178 125.871 43.9775C124.629 45.6371 124.008 48.2844 124.008 51.9193C124.008 53.5076 124.135 54.9687 124.39 56.3025C124.655 57.6262 125.062 58.7615 125.612 59.7084C126.172 60.6451 126.89 61.3782 127.765 61.9076C128.651 62.4371 129.71 62.7018 130.942 62.7018C131.614 62.7018 132.276 62.6153 132.927 62.4422C133.589 62.2691 134.139 62.04 134.577 61.7549C134.77 61.6327 134.923 61.4902 135.035 61.3273C135.157 61.1542 135.264 60.9404 135.356 60.6858L136.394 57.5396L138.38 57.7229C138.4 58.568 138.375 59.4691 138.303 60.4262C138.242 61.3731 138.135 62.2996 137.983 63.2058C137.097 63.5724 136.028 63.8676 134.775 64.0916C133.523 64.3156 132.286 64.4276 131.064 64.4276ZM130.071 63.2211H131.492L130.835 65.3287C130.906 65.3287 131.003 65.3338 131.125 65.344C131.247 65.3542 131.375 65.3695 131.507 65.3898C132.199 65.4815 132.775 65.7615 133.233 66.2298C133.701 66.6982 133.935 67.3091 133.935 68.0625C133.935 68.6327 133.793 69.152 133.508 69.6204C133.233 70.0989 132.851 70.5062 132.362 70.8422C131.884 71.1782 131.314 71.4378 130.652 71.6211C130 71.8145 129.298 71.9113 128.544 71.9113C128.402 71.9113 128.29 71.9062 128.208 71.896C128.137 71.896 128.05 71.8909 127.949 71.8807L127.75 70.5367C128.778 70.4655 129.573 70.2058 130.133 69.7578C130.693 69.32 130.973 68.8109 130.973 68.2305C130.973 67.6909 130.759 67.2989 130.331 67.0545C129.903 66.8204 129.425 66.6931 128.895 66.6727L130.071 63.2211ZM152.045 64.3971C150.406 64.3971 148.96 64.1222 147.708 63.5724C146.466 63.0124 145.432 62.2182 144.608 61.1898C143.783 60.1615 143.162 58.9091 142.744 57.4327C142.327 55.9462 142.118 54.2865 142.118 52.4538C142.118 50.4175 142.373 48.6102 142.882 47.032C143.401 45.4436 144.124 44.1149 145.05 43.0458C145.987 41.9767 147.117 41.1622 148.441 40.6022C149.765 40.0422 151.236 39.7622 152.855 39.7622C154.494 39.7622 155.935 40.0422 157.177 40.6022C158.429 41.152 159.463 41.9411 160.277 42.9695C161.102 43.9876 161.723 45.2349 162.141 46.7113C162.558 48.1876 162.767 49.8422 162.767 51.6749C162.767 53.6909 162.512 55.4931 162.003 57.0815C161.504 58.6596 160.786 59.9884 159.85 61.0676C158.923 62.1469 157.798 62.9716 156.474 63.5418C155.151 64.112 153.674 64.3971 152.045 64.3971ZM152.473 41.5644C150.396 41.5644 148.777 42.4349 147.616 44.176C146.456 45.9069 145.875 48.5491 145.875 52.1025C145.875 55.5236 146.415 58.1251 147.494 59.9069C148.584 61.6887 150.213 62.5796 152.381 62.5796C154.458 62.5796 156.077 61.704 157.238 59.9527C158.399 58.2015 158.979 55.544 158.979 51.9804C158.979 48.5695 158.44 45.9833 157.36 44.2218C156.281 42.4502 154.652 41.5644 152.473 41.5644Z" fill="#FBFDFD"/>
<path d="M36.6191 41.6992H79.0019" stroke="#FBFDFD" stroke-width="2"/>
<rect x="27.5" y="60.4258" width="19.9429" height="1.34141" fill="#64556A"/>
<rect x="68.4082" y="60.4258" width="19.9429" height="1.34141" fill="#64556A"/>
<path d="M26.5 63.0055V62.7959C26.5 62.5533 26.5441 62.3128 26.6302 62.086L33.9558 42.7901C34.2507 42.0135 34.9949 41.5 35.8256 41.5H37.1116C37.9383 41.5 38.6798 42.0087 38.9775 42.78L46.4253 62.0815C46.514 62.3112 46.5594 62.5553 46.5594 62.8015V63.0055" stroke="#FF902F" stroke-width="3"/>
<path d="M68.6426 63.0055V62.7959C68.6426 62.5533 68.6867 62.3128 68.7728 62.086L76.0984 42.7901C76.3932 42.0135 77.1375 41.5 77.9682 41.5H79.2541C80.0809 41.5 80.8224 42.0087 81.12 42.78L88.5679 62.0815C88.6565 62.3112 88.702 62.5553 88.702 62.8015V63.0055" stroke="#FF902F" stroke-width="3"/>
<path d="M59.79 39.5H52.416C51.9004 39.5 51.4824 39.918 51.4824 40.4336C51.4824 40.8454 51.7522 41.2085 52.1465 41.3274L52.8319 41.534C53.633 41.7755 54.1813 42.5134 54.1813 43.3502V61.0248C54.1813 61.8428 53.6251 62.5559 52.8319 62.7552L52.0587 62.9494C51.7199 63.0345 51.4824 63.3391 51.4824 63.6883C51.4824 64.1091 51.8235 64.4502 52.2443 64.4502H64.1905C64.7522 64.4502 65.2075 63.9949 65.2075 63.4332C65.2075 62.8715 64.7522 62.4162 64.1905 62.4162H59.4424C58.3379 62.4162 57.4424 61.5208 57.4424 60.4162V43.5031C57.4424 42.585 58.0675 41.7848 58.9583 41.5626L60.0112 41.2999C60.418 41.1984 60.7036 40.8329 60.7036 40.4135C60.7036 39.909 60.2946 39.5 59.79 39.5Z" fill="#FF902F"/>
</svg>